<svg xmlns="http://www.w3.org/2000/svg" xmlns:xlink="http://www.w3.org/1999/xlink" width="50" height="50" viewBox="0 0 50 50">
    <defs>
        <rect id="dz33heehxa" width="32" height="32" x="0" y="0" rx="9"/>
        <rect id="i2rtd1v55c" width="34" height="34" x="0" y="0" rx="9"/>
    </defs>
    <g fill="none" fill-rule="evenodd">
        <g transform="translate(0 3) translate(0 0)">
            <mask id="fos4z58cib" fill="#fff">
                <use xlink:href="#dz33heehxa"/>
            </mask>
            <use fill="#F7931A" xlink:href="#dz33heehxa"/>
            <path fill="#FFF" fill-rule="nonzero" d="M22.465 14.436c.28-1.891-1.149-2.908-3.104-3.586l.634-2.562-1.548-.389-.617 2.495c-.407-.102-.825-.199-1.24-.294l.62-2.511-1.546-.389-.635 2.561c-.337-.077-.668-.153-.989-.234l.002-.008-2.135-.537-.412 1.666s1.149.265 1.125.281c.627.158.74.576.721.907l-.722 2.92c.043.01.099.026.16.051l-.163-.04-1.012 4.088c-.077.192-.272.48-.71.37.015.023-1.125-.282-1.125-.282L9 20.728l2.015.506c.375.094.742.193 1.104.287l-.641 2.591 1.546.389.635-2.564c.422.115.832.222 1.234.322l-.633 2.552 1.549.389.64-2.587c2.64.504 4.626.3 5.461-2.105.674-1.936-.033-3.053-1.422-3.782 1.011-.235 1.773-.905 1.977-2.29zm-3.538 4.997c-.478 1.937-3.715.89-4.765.627l.85-3.433c1.05.264 4.415.786 3.915 2.806zm.48-5.025c-.437 1.762-3.132.867-4.006.648l.771-3.114c.874.22 3.689.629 3.234 2.466z" mask="url(#fos4z58cib)"/>
        </g>
        <g transform="translate(0 3) translate(17 9)">
            <mask id="1bf7hyc87d" fill="#fff">
                <use xlink:href="#i2rtd1v55c"/>
            </mask>
            <use fill="#96A4B4" xlink:href="#i2rtd1v55c"/>
            <path fill="#FFF" fill-rule="nonzero" d="M15.899 20.023L16.734 16.942 18.709 16.234 19.2 14.423 19.183 14.378 17.239 15.074 18.64 9.9 14.667 9.9 12.835 16.653 11.305 17.201 10.8 19.068 12.328 18.52 11.249 22.5 21.822 22.5 22.5 20.023 15.899 20.023" mask="url(#1bf7hyc87d)"/>
        </g>
    </g>
</svg>
