<?xml version="1.0" standalone="no"?>
<!DOCTYPE svg PUBLIC "-//W3C//DTD SVG 1.0//EN" "http://www.w3.org/TR/2001/REC-SVG-20010904/DTD/svg10.dtd">
<svg xmlns="http://www.w3.org/2000/svg" xmlns:xlink="http://www.w3.org/1999/xlink" id="body_1" width="20" height="20">

<g transform="matrix(0.4 0 0 0.4 0 0)">
    <path transform="matrix(1 0 0 1 0 0)"  d="M0 12C 0 7.029437 4.029437 3 9 3L9 3L23 3C 27.97056 3 32 7.029437 32 12L32 12L32 26C 32 30.97056 27.97056 35 23 35L23 35L9 35C 4.029437 35 0 30.97056 0 26L0 26L0 12z" stroke="none" fill="#FFFFFF" fill-rule="nonzero" />
    <path transform="matrix(1 0 0 1 0 0)"  d="M0 12C 0 7.029437 4.029437 3 9 3L9 3L23 3C 27.97056 3 32 7.029437 32 12L32 12L32 26C 32 30.97056 27.97056 35 23 35L23 35L9 35C 4.029437 35 0 30.97056 0 26L0 26L0 12z" stroke="none" fill="#F7931A" fill-rule="nonzero" />
    <path transform="matrix(1 0 0 1 0 3)"  d="M22.465 14.436C 22.745 12.545 21.316 11.528 19.361 10.85L19.361 10.85L19.995 8.288L18.447 7.899L17.83 10.394C 17.423 10.292 17.005 10.195 16.59 10.1L16.59 10.1L17.21 7.589001L15.664 7.200001L15.029 9.761001C 14.692 9.684001 14.361 9.608001 14.04 9.527L14.04 9.527L14.042 9.519L11.907 8.982L11.495 10.648C 11.495 10.648 12.644 10.913 12.62 10.929C 13.247 11.087 13.36 11.505 13.341 11.836L13.341 11.836L12.619 14.756C 12.662 14.766 12.718 14.782 12.779 14.807L12.779 14.807L12.616 14.767L11.604 18.855C 11.527 19.047 11.332 19.335 10.894 19.225C 10.909 19.248 9.769 18.943 9.769 18.943L9.769 18.943L9 20.728L11.015 21.234C 11.39 21.328 11.757 21.427 12.119 21.521L12.119 21.521L11.478 24.112L13.024 24.501L13.659 21.937C 14.081 22.052 14.491 22.159 14.893 22.259L14.893 22.259L14.26 24.811L15.809 25.2L16.449 22.613C 19.089 23.117 21.075 22.913 21.91 20.508C 22.584 18.572 21.877 17.455 20.488 16.726C 21.499 16.491 22.261 15.821 22.465 14.436zM18.927 19.433C 18.449 21.37 15.212 20.323 14.162 20.06L14.162 20.06L15.012 16.627C 16.062 16.891 19.427 17.413 18.927 19.433zM19.407 14.408C 18.97 16.17 16.275 15.275 15.401 15.056L15.401 15.056L16.172 11.942C 17.046 12.162 19.861 12.571 19.406 14.408z" stroke="none" fill="#FFFFFF" fill-rule="nonzero" />
    <path transform="matrix(1 0 0 1 0 0)"  d="M17 21C 17 16.02944 21.02944 12 26 12L26 12L42 12C 46.97056 12 51 16.02944 51 21L51 21L51 37C 51 41.97056 46.97056 46 42 46L42 46L26 46C 21.02944 46 17 41.97056 17 37L17 37L17 21z" stroke="none" fill="#FFFFFF" fill-rule="nonzero" />
    <path transform="matrix(1 0 0 1 0 0)"  d="M17 21C 17 16.02944 21.02944 12 26 12L26 12L42 12C 46.97056 12 51 16.02944 51 21L51 21L51 37C 51 41.97056 46.97056 46 42 46L42 46L26 46C 21.02944 46 17 41.97056 17 37L17 37L17 21z" stroke="none" fill="#96A4B4" fill-rule="nonzero" />
    <path transform="matrix(1 0 0 1 17 12)"  d="M15.899 20.023L16.734 16.942L18.709 16.234L19.2 14.423L19.183 14.378L17.239 15.074L18.64 9.9L14.667 9.9L12.835 16.653L11.305 17.201L10.8 19.068L12.328 18.52L11.249 22.5L21.822 22.5L22.5 20.023L15.899 20.023" stroke="none" fill="#FFFFFF" fill-rule="nonzero" />
</g>
</svg>